<svg viewBox="0 0 23 28" fill="none" xmlns="http://www.w3.org/2000/svg">
<path d="M7.05556 4.27771H4.27778C3.54107 4.27771 2.83453 4.57037 2.31359 5.0913C1.79266 5.61224 1.5 6.31878 1.5 7.05549V23.7222C1.5 24.4589 1.79266 25.1654 2.31359 25.6864C2.83453 26.2073 3.54107 26.5 4.27778 26.5H18.1667C18.9034 26.5 19.6099 26.2073 20.1309 25.6864C20.6518 25.1654 20.9445 24.4589 20.9445 23.7222V7.05549C20.9445 6.31878 20.6518 5.61224 20.1309 5.0913C19.6099 4.57037 18.9034 4.27771 18.1667 4.27771H15.3889" stroke="#4C5165" stroke-width="3" stroke-linecap="round" stroke-linejoin="round"/>
<path d="M7.05556 20.9445V14M11.2222 20.9445V19.5556M15.3889 20.9445V16.7778M7.05556 4.27778C7.05556 3.54107 7.34822 2.83453 7.86915 2.31359C8.39009 1.79266 9.09663 1.5 9.83334 1.5H12.6111C13.3478 1.5 14.0544 1.79266 14.5753 2.31359C15.0962 2.83453 15.3889 3.54107 15.3889 4.27778C15.3889 5.01449 15.0962 5.72103 14.5753 6.24197C14.0544 6.7629 13.3478 7.05556 12.6111 7.05556H9.83334C9.09663 7.05556 8.39009 6.7629 7.86915 6.24197C7.34822 5.72103 7.05556 5.01449 7.05556 4.27778Z" stroke="#4C5165" stroke-width="3" stroke-linecap="round" stroke-linejoin="round"/>
</svg>
