<svg viewBox="0 0 37 37" fill="none" xmlns="http://www.w3.org/2000/svg">
<path d="M18.5 3.08301C27.0144 3.08301 33.917 9.98561 33.917 18.5C33.917 27.0144 27.0144 33.917 18.5 33.917C9.98561 33.917 3.08301 27.0144 3.08301 18.5C3.08301 9.98561 9.98561 3.08301 18.5 3.08301ZM18.6475 22.001C16.7993 21.9694 14.9914 22.5342 13.4404 23.6123C11.891 24.6893 10.6661 26.2303 9.89844 28.04C9.68297 28.5483 9.92056 29.1348 10.4287 29.3506C10.9371 29.5662 11.5245 29.3296 11.7402 28.8213C12.3699 27.3368 13.3616 26.1023 14.582 25.2539C15.8008 24.4068 17.2 23.9768 18.6133 24.001C20.0266 24.0252 21.4146 24.5028 22.6113 25.3926C23.8097 26.2835 24.7682 27.553 25.3574 29.0596C25.5587 29.5736 26.1382 29.827 26.6523 29.626C27.1666 29.4248 27.4207 28.8453 27.2197 28.3311C26.5025 26.4973 25.3221 24.9163 23.8047 23.7881C22.2858 22.6588 20.4954 22.0326 18.6475 22.001ZM18.5 8.25C15.3934 8.25 12.875 10.7684 12.875 13.875C12.875 16.9816 15.3934 19.5 18.5 19.5C21.6066 19.5 24.125 16.9816 24.125 13.875C24.125 10.7684 21.6066 8.25 18.5 8.25ZM18.5 10.25C20.502 10.25 22.125 11.873 22.125 13.875C22.125 15.877 20.502 17.5 18.5 17.5C16.498 17.5 14.875 15.877 14.875 13.875C14.875 11.873 16.498 10.25 18.5 10.25Z" fill="#1C59AB"/>
<rect x="3.58334" y="3.58337" width="29.8333" height="29.8333" rx="14.9167" stroke="#1C59AB"/>
</svg>
