<svg width="20" height="30" viewBox="0 0 20 30" fill="none" xmlns="http://www.w3.org/2000/svg">
<path d="M14.5 21.7504L14.5 23.9818C14.5 26.27 14.5 27.414 13.7565 28.0144C13.0131 28.6148 11.8947 28.3739 9.65778 27.8921L6.23667 27.1553C3.96691 26.6664 2.83203 26.422 2.16602 25.5972C1.50001 24.7725 1.50001 23.6116 1.50001 21.2898L1.50001 8.58034C1.50001 6.25853 1.50001 5.09763 2.16602 4.2729C2.83203 3.44816 3.96691 3.20373 6.23667 2.71486L9.65778 1.978C11.8946 1.49621 13.0131 1.25532 13.7565 1.8557C14.5 2.45608 14.5 3.60016 14.5 5.88833L14.5 7.84271" stroke="#6E6E6E" stroke-width="3" stroke-linecap="round"/>
<path d="M10.5 21.6018L6.50001 14.9351M6.50001 14.9351L10.5 8.26847M6.50001 14.9351L18.5 14.9351" stroke="#6E6E6E" stroke-width="3" stroke-linecap="round"/>
</svg>
