<svg viewBox="0 0 25 23" fill="none" xmlns="http://www.w3.org/2000/svg">
<path d="M16.5 21.5002H3.10002C2.53996 21.5002 2.25994 21.5002 2.04602 21.3913C1.85786 21.2954 1.70488 21.1424 1.60901 20.9542C1.50002 20.7403 1.50002 20.4603 1.50002 19.9002V4.70024C1.50002 3.58014 1.50002 3.02009 1.718 2.59226C1.90975 2.21594 2.21571 1.90998 2.59203 1.71823C3.01986 1.50024 3.57991 1.50024 4.70002 1.50024H7.67453C8.16371 1.50024 8.4083 1.50024 8.63848 1.5555C8.84255 1.6045 9.03764 1.68531 9.21659 1.79496C9.41842 1.91865 9.59137 2.0916 9.93727 2.4375L10.5628 3.06299C10.9087 3.40889 11.0816 3.58184 11.2834 3.70552C11.4624 3.81518 11.6575 3.89599 11.8616 3.94498C12.0917 4.00024 12.3363 4.00024 12.8255 4.00024H17.05C18.1701 4.00024 18.7302 4.00024 19.158 4.21823C19.5343 4.40998 19.8403 4.71594 20.032 5.09226C20.25 5.52009 20.25 6.08014 20.25 7.20024V12.1252" stroke="#4C5165" stroke-width="3" stroke-linecap="round" stroke-linejoin="round"/>
<path d="M21.8233 9.00024C22.976 9.00024 23.5523 9.00053 23.9249 9.24243C24.2508 9.45406 24.4818 9.78373 24.5694 10.1624C24.6694 10.5951 24.473 11.1369 24.0792 12.22L21.0157 20.6438C20.7398 21.4024 20.6016 21.782 20.3585 22.0618C20.1437 22.3089 19.8711 22.4991 19.5655 22.6165C19.2195 22.7493 18.8159 22.7493 18.0088 22.7493H7.10259C4.79731 22.7493 3.64465 22.7496 2.89947 22.2659C2.24745 21.8425 1.78543 21.1825 1.6104 20.425C1.41038 19.5594 1.80391 18.4756 2.59185 16.3088L4.48345 11.1067C4.75932 10.3481 4.89766 9.96856 5.14068 9.68872C5.35548 9.44153 5.62793 9.25045 5.93365 9.13306C6.27978 9.00016 6.68375 9.00024 7.49126 9.00024H21.8233ZM9.00005 14.2502C8.44777 14.2502 8.00005 14.698 8.00005 15.2502C8.00005 15.8025 8.44777 16.2502 9.00005 16.2502H17.7501C18.3022 16.2501 18.7501 15.8024 18.7501 15.2502C18.7501 14.698 18.3022 14.2504 17.7501 14.2502H9.00005Z" fill="#4C5165"/>
</svg>
