<svg width="16" height="18" viewBox="0 0 16 18" fill="none" xmlns="http://www.w3.org/2000/svg">
<path d="M10.6666 6V4.91667C10.6666 3.44391 9.47274 2.25 7.99998 2.25C6.52722 2.25 5.33331 3.44391 5.33331 4.91667V6" stroke="#222222" stroke-width="2" stroke-linecap="round"/>
<path d="M2 10.0714C2 8.37105 2 7.52086 2.33466 6.87305C2.62017 6.3204 3.0704 5.87017 3.62305 5.58466C4.27086 5.25 5.12105 5.25 6.82143 5.25H9.17857C10.879 5.25 11.7291 5.25 12.3769 5.58466C12.9296 5.87017 13.3798 6.3204 13.6653 6.87305C14 7.52086 14 8.37105 14 10.0714V10.5C14 12.3638 14 13.2956 13.6955 14.0307C13.2895 15.0108 12.5108 15.7895 11.5307 16.1955C10.7956 16.5 9.86377 16.5 8 16.5C6.13623 16.5 5.20435 16.5 4.46927 16.1955C3.48915 15.7895 2.71046 15.0108 2.30448 14.0307C2 13.2956 2 12.3638 2 10.5V10.0714Z" fill="#222222"/>
</svg>
