<svg viewBox="0 0 22 27" fill="none" xmlns="http://www.w3.org/2000/svg">
<path d="M11 7.33301L11.0049 7.98145C11.0103 8.18915 11.0221 8.38642 11.0459 8.56348C11.0974 8.94649 11.2231 9.38402 11.5859 9.74707C11.949 10.11 12.3865 10.2356 12.7695 10.2871C13.1239 10.3347 13.557 10.333 14 10.333H21.334V18.666C21.334 22.4373 21.3337 24.3235 20.1621 25.4951C18.9906 26.6665 17.1048 26.666 13.334 26.666H8C4.22916 26.666 2.34343 26.6665 1.17188 25.4951C0.000302121 24.3235 0 22.4373 0 18.666V8C0 4.22876 0.000302121 2.34247 1.17188 1.1709C2.34343 -0.000477914 4.22916 9.71135e-10 8 0H11V7.33301ZM6.66699 19C6.11471 19 5.66699 19.4477 5.66699 20C5.66717 20.5521 6.11482 21 6.66699 21H12C12.5522 21 12.9998 20.5521 13 20C13 19.4477 12.5523 19 12 19H6.66699ZM6.66699 13.666C6.11482 13.666 5.66717 14.1139 5.66699 14.666C5.66699 15.2183 6.11471 15.666 6.66699 15.666H14.667C15.2193 15.666 15.667 15.2183 15.667 14.666C15.6668 14.1139 15.2192 13.666 14.667 13.666H6.66699ZM13 0.00195312C13.7437 0.00741806 14.1818 0.0369481 14.583 0.203125C15.0729 0.40614 15.4589 0.790904 16.2295 1.56152L19.7715 5.10449C20.542 5.87503 20.9278 6.2601 21.1309 6.75C21.297 7.15113 21.3256 7.5895 21.3311 8.33301H14C13.5006 8.33301 13.2263 8.33024 13.0361 8.30469C13.0336 8.30427 13.0308 8.30308 13.0283 8.30273C13.0281 8.30093 13.0276 8.29874 13.0273 8.29688C13.0146 8.20183 13.0076 8.08529 13.0039 7.93066L13 7.33301V0.00195312Z" fill="#4C5165"/>
</svg>
