<svg viewBox="0 0 22 19" fill="none" xmlns="http://www.w3.org/2000/svg">
<ellipse cx="10.9415" cy="5" rx="4.93631" ry="5" fill="#4C5165"/>
<ellipse cx="4.77108" cy="5" rx="3.70223" ry="3.75" fill="#4C5165"/>
<ellipse cx="17.1118" cy="5" rx="3.70223" ry="3.75" fill="#4C5165"/>
<path fill-rule="evenodd" clip-rule="evenodd" d="M4.77103 10C5.8647 10 6.72115 10.4005 7.39017 10.999C5.52934 12.2217 4.56733 14.3627 4.06986 16.25H0.938024C0.347035 16.2498 -0.106829 15.7419 0.0220087 15.165C0.421792 13.3753 1.59683 10 4.77103 10Z" fill="#4C5165"/>
<path d="M17.1115 10C20.2856 10 21.4607 13.3753 21.8605 15.165C21.9893 15.7419 21.5356 16.25 20.9445 16.25H17.8126C17.3152 14.3627 16.3533 12.2217 14.4923 10.999C15.1613 10.4005 16.0179 10.0001 17.1115 10Z" fill="#4C5165"/>
<path d="M10.9415 11.25C15.7031 11.25 16.7902 15.7164 17.0384 17.7557C17.1051 18.304 16.6641 18.75 16.1119 18.75H5.77109C5.2188 18.75 4.77779 18.304 4.84451 17.7557C5.0927 15.7164 6.17981 11.25 10.9415 11.25Z" fill="#4C5165"/>
</svg>
