<svg width="24" height="24" viewBox="0 0 24 24" fill="none" xmlns="http://www.w3.org/2000/svg">
<path d="M8 7.13193V6.66245C8 4.49541 8 3.41189 8.69774 2.81329C9.39548 2.21469 10.4664 2.37945 12.6082 2.70896L15.9123 3.21728C18.34 3.59077 19.5538 3.77751 20.2769 4.62036C21 5.46322 21 6.69132 21 9.14751V14.8525C21 17.3087 21 18.5368 20.2769 19.3796C19.5538 20.2225 18.34 20.4092 15.9123 20.7827L12.6082 21.291C10.4664 21.6206 9.39548 21.7853 8.69774 21.1867C8 20.5881 8 19.5046 8 17.3376V17.066" stroke="white" stroke-width="2" stroke-linecap="round"/>
<path d="M12 7L16 12M16 12L12 17M16 12H4" stroke="white" stroke-width="2" stroke-linecap="round"/>
</svg>
