<svg viewBox="0 0 19 24" fill="none" xmlns="http://www.w3.org/2000/svg">
<path d="M1 0V4.05C1 5.17011 1 5.73016 1.21799 6.15798C1.40973 6.53431 1.71569 6.84027 2.09202 7.03201C2.51984 7.25 3.07989 7.25 4.2 7.25H10.5435" stroke="#4C5164" stroke-width="2"/>
<path d="M1 3.62516V16.1335C1 17.2536 1 17.8137 1.21799 18.2415C1.40973 18.6178 1.71569 18.9238 2.09202 19.1155C2.51984 19.3335 3.07989 19.3335 4.2 19.3335H10.5435" stroke="#4C5164" stroke-width="2"/>
<path d="M10.5435 17.3085C10.5435 16.7484 10.5435 16.4684 10.6525 16.2545C10.7484 16.0663 10.9014 15.9134 11.0895 15.8175C11.3034 15.7085 11.5835 15.7085 12.1435 15.7085H12.9294L14.1223 16.9168H16.1012C16.6612 16.9168 16.9412 16.9168 17.1551 17.0258C17.3433 17.1217 17.4963 17.2747 17.5922 17.4628C17.7012 17.6768 17.7012 17.9568 17.7012 18.5168V21.3585C17.7012 21.9185 17.7012 22.1986 17.5922 22.4125C17.4963 22.6006 17.3433 22.7536 17.1551 22.8495C16.9412 22.9585 16.6612 22.9585 16.1012 22.9585H12.1435C11.5835 22.9585 11.3034 22.9585 11.0895 22.8495C10.9014 22.7536 10.7484 22.6006 10.6525 22.4125C10.5435 22.1986 10.5435 21.9185 10.5435 21.3585V17.3085Z" stroke="#4C5164" stroke-width="2" stroke-linejoin="round"/>
<path d="M10.5435 5.225C10.5435 4.66495 10.5435 4.38492 10.6525 4.17101C10.7484 3.98285 10.9014 3.82987 11.0895 3.73399C11.3034 3.625 11.5835 3.625 12.1435 3.625H12.9294L14.1223 4.83333H16.1012C16.6612 4.83333 16.9412 4.83333 17.1551 4.94233C17.3433 5.0382 17.4963 5.19118 17.5922 5.37934C17.7012 5.59325 17.7012 5.87328 17.7012 6.43333V9.275C17.7012 9.83505 17.7012 10.1151 17.5922 10.329C17.4963 10.5172 17.3433 10.6701 17.1551 10.766C16.9412 10.875 16.6612 10.875 16.1012 10.875H12.1435C11.5835 10.875 11.3034 10.875 11.0895 10.766C10.9014 10.6701 10.7484 10.5172 10.6525 10.329C10.5435 10.1151 10.5435 9.83505 10.5435 9.275V5.225Z" stroke="#4C5164" stroke-width="2" stroke-linejoin="round"/>
</svg>
